<?xml version="1.0" encoding="UTF-8" standalone="no"?>
<svg
   id="Layer_2"
   viewBox="0 0 28.45 19.57"
   version="1.1"
   sodipodi:docname="compute_white.svg"
   inkscape:version="1.1 (c68e22c387, 2021-05-23)"
   xmlns:inkscape="http://www.inkscape.org/namespaces/inkscape"
   xmlns:sodipodi="http://sodipodi.sourceforge.net/DTD/sodipodi-0.dtd"
   xmlns="http://www.w3.org/2000/svg"
   xmlns:svg="http://www.w3.org/2000/svg">
  <sodipodi:namedview
     id="namedview14"
     pagecolor="#ffffff"
     bordercolor="#666666"
     borderopacity="1.0"
     inkscape:pageshadow="2"
     inkscape:pageopacity="0.0"
     inkscape:pagecheckerboard="0"
     showgrid="false"
     inkscape:zoom="19.238631"
     inkscape:cx="10.83757"
     inkscape:cy="9.3301858"
     inkscape:window-width="1920"
     inkscape:window-height="1137"
     inkscape:window-x="-8"
     inkscape:window-y="-8"
     inkscape:window-maximized="1"
     inkscape:current-layer="Layer_2" />
  <defs
     id="defs4">
    <style
       id="style2">.cls-1{fill:#828181;}</style>
    <filter
       style="color-interpolation-filters:sRGB;"
       inkscape:label="Invert"
       id="filter875"
       x="0"
       y="0"
       width="1"
       height="1">
      <feColorMatrix
         values="1 0 0 0 0 0 1 0 0 0 0 0 1 0 0 -0.21 -0.72 -0.07 2 0 "
         result="fbSourceGraphic"
         id="feColorMatrix873" />
      <feColorMatrix
         result="fbSourceGraphicAlpha"
         in="fbSourceGraphic"
         values="0 0 0 -1 0 0 0 0 -1 0 0 0 0 -1 0 0 0 0 1 0"
         id="feColorMatrix895" />
      <feColorMatrix
         id="feColorMatrix897"
         values="1 0 0 0 0 0 1 0 0 0 0 0 1 0 0 -0.21 -0.72 -0.07 2 0 "
         result="fbSourceGraphic"
         in="fbSourceGraphic" />
      <feColorMatrix
         result="fbSourceGraphicAlpha"
         in="fbSourceGraphic"
         values="0 0 0 -1 0 0 0 0 -1 0 0 0 0 -1 0 0 0 0 1 0"
         id="feColorMatrix917" />
      <feColorMatrix
         id="feColorMatrix919"
         type="hueRotate"
         values="180"
         result="color1"
         in="fbSourceGraphic" />
      <feColorMatrix
         id="feColorMatrix921"
         values="-1 0 0 0 1 0 -1 0 0 1 0 0 -1 0 1 -0.21 -0.72 -0.07 2 0 "
         result="color2" />
    </filter>
  </defs>
  <g
     id="background"
     style="fill:#000000;filter:url(#filter875)">
    <g
       id="g10"
       style="fill:#000000">
      <path
         class="cls-1"
         d="M 0,17.84 C 0.33,17.59 0.54,17.23 0.81,16.93 1.15,16.56 1.45,16.15 1.78,15.76 2.01,15.49 2.25,15.23 2.47,14.95 2.57,14.82 2.61,14.68 2.61,14.5 2.61,10.05 2.61,5.59 2.6,1.14 2.6,0.52 3.12,0 3.75,0 c 6.98,0 13.96,0 20.94,0 0.63,0 1.15,0.52 1.15,1.14 -0.01,4.32 0,8.65 -0.02,12.97 0,0.54 0.2,0.9 0.52,1.28 0.54,0.61 1.03,1.26 1.57,1.88 0.17,0.2 0.3,0.44 0.54,0.58 v 0.5 c -0.28,0.85 -0.92,1.23 -1.86,1.23 -8.32,0 -16.64,0 -24.96,0 -0.1,0 -0.2,0 -0.3,-0.02 C 0.64,19.43 0.21,19.01 0,18.36 v -0.5 z M 14.22,1.01 h -2.25 c -2.26,0 -4.52,0 -6.78,0 -0.57,0 -1.05,0.4 -1.04,1.04 0.03,3.61 0.01,7.22 0.02,10.83 0,0.1 -0.01,0.2 0.02,0.3 0.15,0.44 0.47,0.66 1.08,0.67 4.97,0 9.94,0 14.92,0 1,0 2,0 3,0 0.71,0 1.11,-0.34 1.1,-1.08 -0.02,-3.58 -0.02,-7.17 0,-10.75 0,-0.57 -0.45,-1.01 -1.02,-1.01 -3.02,0.01 -6.04,0 -9.06,0 z M 18.5,17.95 C 18.32,17.72 18.18,17.5 17.99,17.32 17.87,17.2 17.83,17 17.59,17.01 c -2.25,0 -4.5,0 -6.75,0 -0.06,0 -0.12,-0.02 -0.19,0.06 -0.22,0.29 -0.47,0.57 -0.72,0.87 h 8.56 z m -4.27,1.01 c 0.67,0 1.35,0 2.02,0 0.17,0 0.31,-0.03 0.3,-0.23 0,-0.19 -0.14,-0.22 -0.31,-0.22 -1.35,0 -2.7,0 -4.05,0 -0.17,0 -0.31,0.03 -0.3,0.23 0,0.19 0.14,0.22 0.31,0.22 0.67,0 1.35,0 2.02,0 z"
         id="path6"
         style="fill:#000000" />
      <path
         class="cls-1"
         d="m 11.41,4.01 c 0,0 0.04,0.04 0.08,0.06 0.37,0.25 0.75,0.49 1.12,0.74 0.17,0.11 0.51,0 0.55,-0.19 0.1,-0.43 0.2,-0.87 0.27,-1.31 0.03,-0.16 0.09,-0.2 0.23,-0.19 0.37,0 0.74,0 1.11,0 0.15,0 0.2,0.04 0.23,0.2 0.07,0.43 0.17,0.86 0.27,1.29 0.05,0.22 0.37,0.33 0.56,0.21 0.37,-0.24 0.75,-0.46 1.1,-0.72 0.15,-0.11 0.21,-0.08 0.32,0.03 0.24,0.25 0.48,0.49 0.73,0.72 0.15,0.13 0.14,0.25 0.04,0.4 -0.24,0.34 -0.46,0.68 -0.69,1.02 -0.15,0.22 0.01,0.59 0.27,0.63 0.41,0.07 0.81,0.15 1.22,0.22 0.11,0.02 0.19,0.07 0.19,0.21 -0.01,0.39 0,0.78 0,1.17 0,0.12 -0.02,0.16 -0.16,0.18 -0.44,0.07 -0.88,0.18 -1.32,0.27 -0.16,0.03 -0.33,0.39 -0.24,0.53 0.25,0.38 0.49,0.77 0.76,1.14 0.09,0.12 0.07,0.19 -0.02,0.28 -0.28,0.27 -0.56,0.54 -0.82,0.83 -0.1,0.1 -0.17,0.09 -0.27,0.02 -0.33,-0.23 -0.67,-0.45 -1,-0.67 -0.32,-0.22 -0.62,-0.12 -0.7,0.25 -0.09,0.4 -0.16,0.81 -0.23,1.22 -0.02,0.14 -0.07,0.19 -0.21,0.19 -0.38,0 -0.76,0 -1.14,0 -0.15,0 -0.2,-0.05 -0.22,-0.2 -0.07,-0.43 -0.17,-0.86 -0.27,-1.29 -0.06,-0.24 -0.37,-0.37 -0.57,-0.24 -0.36,0.24 -0.71,0.48 -1.06,0.73 -0.11,0.08 -0.18,0.11 -0.29,0 -0.26,-0.28 -0.53,-0.55 -0.8,-0.81 C 10.33,10.82 10.33,10.75 10.43,10.61 10.68,10.26 10.9,9.89 11.14,9.53 11.27,9.33 11.12,9 10.9,8.96 10.46,8.87 10.02,8.77 9.58,8.69 9.46,8.67 9.46,8.62 9.46,8.53 c 0,-0.4 0,-0.8 0,-1.19 C 9.46,7.19 9.54,7.15 9.65,7.13 10.06,7.05 10.46,6.98 10.87,6.91 11.13,6.86 11.28,6.5 11.13,6.27 10.9,5.93 10.67,5.58 10.44,5.25 10.34,5.1 10.34,4.99 10.48,4.85 10.73,4.62 10.97,4.37 11.21,4.13 11.26,4.08 11.3,4 11.42,4.02 Z m 2.82,2.27 c -0.94,0 -1.65,0.7 -1.65,1.63 0,0.96 0.67,1.62 1.63,1.63 C 15.1,9.55 15.83,8.95 15.86,7.93 15.88,7.05 15.21,6.3 14.23,6.28 Z"
         id="path8"
         style="fill:#000000" />
    </g>
  </g>
</svg>
