<?xml version="1.0" encoding="UTF-8"?><svg id="Layer_2" xmlns="http://www.w3.org/2000/svg" viewBox="0 0 28.45 19.57"><defs><style>.cls-1{fill:#828181;}</style></defs><g id="background"><g><path class="cls-1" d="M0,17.84c.33-.25,.54-.61,.81-.91,.34-.37,.64-.78,.97-1.17,.23-.27,.47-.53,.69-.81,.1-.13,.14-.27,.14-.45,0-4.45,0-8.91-.01-13.36C2.6,.52,3.12,0,3.75,0c6.98,0,13.96,0,20.94,0,.63,0,1.15,.52,1.15,1.14-.01,4.32,0,8.65-.02,12.97,0,.54,.2,.9,.52,1.28,.54,.61,1.03,1.26,1.57,1.88,.17,.2,.3,.44,.54,.58v.5c-.28,.85-.92,1.23-1.86,1.23-8.32,0-16.64,0-24.96,0-.1,0-.2,0-.3-.02-.69-.13-1.12-.55-1.33-1.2v-.5ZM14.22,1.01h-2.25c-2.26,0-4.52,0-6.78,0-.57,0-1.05,.4-1.04,1.04,.03,3.61,.01,7.22,.02,10.83,0,.1-.01,.2,.02,.3,.15,.44,.47,.66,1.08,.67,4.97,0,9.94,0,14.92,0,1,0,2,0,3,0,.71,0,1.11-.34,1.1-1.08-.02-3.58-.02-7.17,0-10.75,0-.57-.45-1.01-1.02-1.01-3.02,.01-6.04,0-9.06,0Zm4.28,16.94c-.18-.23-.32-.45-.51-.63-.12-.12-.16-.32-.4-.31-2.25,0-4.5,0-6.75,0-.06,0-.12-.02-.19,.06-.22,.29-.47,.57-.72,.87h8.56Zm-4.27,1.01c.67,0,1.35,0,2.02,0,.17,0,.31-.03,.3-.23,0-.19-.14-.22-.31-.22-1.35,0-2.7,0-4.05,0-.17,0-.31,.03-.3,.23,0,.19,.14,.22,.31,.22,.67,0,1.35,0,2.02,0Z"/><path class="cls-1" d="M11.41,4.01s.04,.04,.08,.06c.37,.25,.75,.49,1.12,.74,.17,.11,.51,0,.55-.19,.1-.43,.2-.87,.27-1.31,.03-.16,.09-.2,.23-.19,.37,0,.74,0,1.11,0,.15,0,.2,.04,.23,.2,.07,.43,.17,.86,.27,1.29,.05,.22,.37,.33,.56,.21,.37-.24,.75-.46,1.1-.72,.15-.11,.21-.08,.32,.03,.24,.25,.48,.49,.73,.72,.15,.13,.14,.25,.04,.4-.24,.34-.46,.68-.69,1.02-.15,.22,.01,.59,.27,.63,.41,.07,.81,.15,1.22,.22,.11,.02,.19,.07,.19,.21-.01,.39,0,.78,0,1.17,0,.12-.02,.16-.16,.18-.44,.07-.88,.18-1.32,.27-.16,.03-.33,.39-.24,.53,.25,.38,.49,.77,.76,1.14,.09,.12,.07,.19-.02,.28-.28,.27-.56,.54-.82,.83-.1,.1-.17,.09-.27,.02-.33-.23-.67-.45-1-.67-.32-.22-.62-.12-.7,.25-.09,.4-.16,.81-.23,1.22-.02,.14-.07,.19-.21,.19-.38,0-.76,0-1.14,0-.15,0-.2-.05-.22-.2-.07-.43-.17-.86-.27-1.29-.06-.24-.37-.37-.57-.24-.36,.24-.71,.48-1.06,.73-.11,.08-.18,.11-.29,0-.26-.28-.53-.55-.8-.81-.12-.11-.12-.18-.02-.32,.25-.35,.47-.72,.71-1.08,.13-.2-.02-.53-.24-.57-.44-.09-.88-.19-1.32-.27-.12-.02-.12-.07-.12-.16,0-.4,0-.8,0-1.19,0-.15,.08-.19,.19-.21,.41-.08,.81-.15,1.22-.22,.26-.05,.41-.41,.26-.64-.23-.34-.46-.69-.69-1.02-.1-.15-.1-.26,.04-.4,.25-.23,.49-.48,.73-.72,.05-.05,.09-.13,.21-.11Zm2.82,2.27c-.94,0-1.65,.7-1.65,1.63,0,.96,.67,1.62,1.63,1.63,.89,.01,1.62-.59,1.65-1.61,.02-.88-.65-1.63-1.63-1.65Z"/></g></g></svg>